# xmcd CD database file
#
# Track frame offsets:
#	150
#	17815
#	35025
#	57340
#	72565
#	88312
#	116465
#	137815
#	158950
#	179875
#	198957
#	218060
#	237857
#	263255
#
# Disc length: 3859 seconds
#
# Revision: 39
# Processed by: cddbd v1.5.2PL0 Copyright (c) Steve Scherf et al.
# Submitted via: CDex 1.60beta1-cs1
#
DISCID=cf0f110e
DTITLE=B'z - B'z The Best “Treasure”
DYEAR=1998
DGENRE=Rock
TTITLE0=BLOWIN'
TTITLE1=恋心 (KOI-GOKORO)
TTITLE2=TIME
TTITLE3=Liar! Liar!
TTITLE4=ねがい
TTITLE5=愛しい人よGood Night...
TTITLE6=Pleasure'98 ～人生の快楽～
TTITLE7=ミエナイチカラ ～INVISIBLE ONE～
TTITLE8=もう一度キスしたかった
TTITLE9=FIREBALL
TTITLE10=Real Thing Shakes
TTITLE11=MOTEL
TTITLE12=いつかのメリークリスマス
TTITLE13=RUN ～1998 style～
EXTD=YEAR: 1998
EXTT0=
EXTT1=
EXTT2=
EXTT3=
EXTT4=
EXTT5=
EXTT6=
EXTT7=
EXTT8=
EXTT9=
EXTT10=
EXTT11=
EXTT12=
EXTT13=
PLAYORDER=
